<svg width="168" height="171" viewBox="0 0 168 171" fill="none" xmlns="http://www.w3.org/2000/svg">
<g clip-path="url(#clip0_2_110)">
<path d="M84.0026 167.806C130.286 167.806 167.806 130.286 167.806 84.0026C167.806 37.7196 130.286 0.199738 84.0026 0.199738C37.7196 0.199738 0.199738 37.7196 0.199738 84.0026C0.199738 130.286 37.7196 167.806 84.0026 167.806Z" fill="#050428" stroke="#E5FF94" stroke-width="0.75" stroke-miterlimit="10"/>
<path d="M136.672 136.672C118.905 154.438 94.3998 161.351 71.3978 157.414C49.7624 152.478 53.71 124.509 89.8477 88.3707C130.632 47.5863 153.792 45.8096 157.64 72.7539V72.7802C161.062 95.3775 154.086 119.263 136.677 136.672H136.672Z" fill="#E5FF94"/>
<path d="M80.034 81.1431C37.2259 123.951 12.8887 115.604 10.045 92.8754C7.42205 70.9772 14.5235 48.1276 31.3229 31.3282C48.8688 13.7875 72.9799 6.8228 95.7454 10.4392C120.871 15.5222 117.407 43.7701 80.034 81.1379V81.1431Z" fill="#E5FF94"/>
<path d="M91.6097 80.5365L78.1747 93.9716L66.4632 82.2601C64.8722 80.6691 63.5022 79.7705 62.3531 79.5643C61.2336 79.3875 60.114 79.8589 58.9944 80.9785C57.7275 82.2454 57.2266 83.4239 57.4918 84.514C57.7864 85.5747 58.9797 87.1509 61.0715 89.2428L73.1365 101.308L55.9008 118.544L41.8029 104.446C35.1737 97.8165 31.6824 91.1726 31.3288 84.514C31.0047 77.826 33.8332 71.4915 39.8141 65.5105L63.458 41.8666C69.2327 36.0919 75.361 33.2635 81.8428 33.3814C88.354 33.5287 94.6149 36.6075 100.625 42.6179L116.226 58.2185L98.9017 75.5426L87.4554 64.0963C84.3618 61.0027 81.8133 60.4577 79.8098 62.4611C78.6313 63.6396 78.1747 64.8329 78.4398 66.0409C78.7345 67.2194 79.8246 68.7514 81.7102 70.637L91.6097 80.5365Z" fill="#050428"/>
<path d="M107.903 48.8961L129.824 70.8164C142.817 83.8095 144.202 95.4178 133.978 105.641C128.91 110.709 122.473 112.698 114.665 111.608C118.319 120.859 116.551 129.079 109.362 136.268C103.852 141.777 97.562 144.267 90.4909 143.737C87.0732 143.442 83.9944 142.544 81.2543 141.041C78.5143 139.538 75.3471 136.99 71.7526 133.395L68.3497 129.992L83.8618 114.48L86.9112 117.53C88.7084 119.327 90.1963 120.373 91.3748 120.667C92.5828 120.933 93.7613 120.491 94.9103 119.342C96.8549 117.397 96.3246 114.922 93.3194 111.917L89.8722 108.47L105.959 92.3831C109.259 95.683 112.043 96.1986 114.312 93.9299C116.403 91.8381 115.962 89.3043 112.986 86.3285L109.671 83.014L65.5212 127.164L47.5784 109.221L107.903 48.8961Z" fill="#050428"/>
</g>
<defs>
<clipPath id="clip0_2_110">
<rect width="168" height="170.392" fill="white"/>
</clipPath>
</defs>
</svg>
